{"accessors" : [{"bufferView" : 0, "byteOffset" : 0, "componentType" : 5123, "count" : 570, "type" : "SCALAR", "max" : [569], "min" : [0]}, {"bufferView" : 1, "byteOffset" : 0, "componentType" : 5126, "count" : 570, "type" : "VEC3", "max" : [22760.037109375, 22764.037109375, 22768.037109375], "min" : [0.03652946650981903, 4.036529541015625, 8.036529541015625]}, {"bufferView" : 1, "byteOffset" : 12, "componentType" : 5126, "count" : 570, "type" : "VEC3", "max" : [22772.037109375, 22776.037109375, 22780.037109375], "min" : [12.036529541015625, 16.036529541015625, 20.036529541015625]}, {"bufferView" : 1, "byteOffset" : 24, "componentType" : 5126, "count" : 570, "type" : "VEC2", "max" : [22784.037109375, 22788.037109375], "min" : [24.036529541015625, 28.036529541015625]}, {"bufferView" : 1, "byteOffset" : 32, "componentType" : 5126, "count" : 570, "type" : "VEC2", "max" : [22792.037109375, 22796.037109375], "min" : [32.036529541015625, 36.036529541015625]}, {"bufferView" : 0, "byteOffset" : 1140, "componentType" : 5123, "count" : 570, "type" : "SCALAR", "max" : [569], "min" : [0]}, {"bufferView" : 3, "byteOffset" : 0, "componentType" : 5126, "count" : 570, "type" : "VEC3", "max" : [22759.96484375, 22763.96484375, 22767.96484375], "min" : [-0.03560858219861984, 3.9643914699554443, 7.964391231536865]}, {"bufferView" : 3, "byteOffset" : 12, "componentType" : 5126, "count" : 570, "type" : "VEC3", "max" : [22771.96484375, 22775.96484375, 22779.96484375], "min" : [11.964391708374023, 15.964391708374023, 19.964391708374023]}, {"bufferView" : 3, "byteOffset" : 24, "componentType" : 5126, "count" : 570, "type" : "VEC2", "max" : [22783.96484375, 22787.96484375], "min" : [23.964391708374023, 27.964391708374023]}, {"bufferView" : 3, "byteOffset" : 32, "componentType" : 5126, "count" : 570, "type" : "VEC2", "max" : [22791.96484375, 22795.96484375], "min" : [31.964391708374023, 35.96438980102539]}, {"bufferView" : 0, "byteOffset" : 2280, "componentType" : 5123, "count" : 6192, "type" : "SCALAR", "max" : [6191], "min" : [0]}, {"bufferView" : 5, "byteOffset" : 0, "componentType" : 5126, "count" : 6192, "type" : "VEC3", "max" : [198111.90625, 198115.90625, 198119.90625], "min" : [-0.09676100313663483, 3.9032390117645264, 7.903238773345947]}, {"bufferView" : 5, "byteOffset" : 12, "componentType" : 5126, "count" : 6192, "type" : "VEC3", "max" : [198123.90625, 198127.90625, 198131.90625], "min" : [11.903239250183105, 15.903239250183105, 19.90323829650879]}, {"bufferView" : 5, "byteOffset" : 24, "componentType" : 5126, "count" : 6192, "type" : "VEC2", "max" : [198135.90625, 198139.90625], "min" : [23.90323829650879, 27.90323829650879]}, {"bufferView" : 0, "byteOffset" : 14664, "componentType" : 5123, "count" : 10344, "type" : "SCALAR", "max" : [10343], "min" : [0]}, {"bufferView" : 7, "byteOffset" : 0, "componentType" : 5126, "count" : 10344, "type" : "VEC3", "max" : [330975.40625, 330979.40625, 330983.40625], "min" : [-0.6070470213890076, 3.3929529190063477, 7.392952919006348]}, {"bufferView" : 7, "byteOffset" : 12, "componentType" : 5126, "count" : 10344, "type" : "VEC3", "max" : [330987.40625, 330991.40625, 330995.40625], "min" : [11.392952919006348, 15.392952919006348, 19.392953872680664]}, {"bufferView" : 7, "byteOffset" : 24, "componentType" : 5126, "count" : 10344, "type" : "VEC2", "max" : [330999.40625, 331003.40625], "min" : [23.392953872680664, 27.392953872680664]}, {"bufferView" : 0, "byteOffset" : 35352, "componentType" : 5123, "count" : 12282, "type" : "SCALAR", "max" : [12281], "min" : [0]}, {"bufferView" : 9, "byteOffset" : 0, "componentType" : 5126, "count" : 12282, "type" : "VEC3", "max" : [491240.0625, 491244.0625, 491248.0625], "min" : [0.0752454400062561, 4.075245380401611, 8.07524585723877]}, {"bufferView" : 9, "byteOffset" : 12, "componentType" : 5126, "count" : 12282, "type" : "VEC3", "max" : [491252.0625, 491256.0625, 491260.0625], "min" : [12.07524585723877, 16.075244903564453, 20.075244903564453]}, {"bufferView" : 9, "byteOffset" : 24, "componentType" : 5126, "count" : 12282, "type" : "VEC2", "max" : [491264.0625, 491268.0625], "min" : [24.075244903564453, 28.075244903564453]}, {"bufferView" : 9, "byteOffset" : 32, "componentType" : 5126, "count" : 12282, "type" : "VEC2", "max" : [491272.0625, 491276.0625], "min" : [32.07524490356445, 36.07524490356445]}, {"bufferView" : 0, "byteOffset" : 59916, "componentType" : 5123, "count" : 1701, "type" : "SCALAR", "max" : [1700], "min" : [0]}, {"bufferView" : 11, "byteOffset" : 0, "componentType" : 5126, "count" : 1701, "type" : "VEC3", "max" : [54400.03125, 54404.03125, 54408.03125], "min" : [0.03251545503735542, 4.032515525817871, 8.032515525817871]}, {"bufferView" : 11, "byteOffset" : 12, "componentType" : 5126, "count" : 1701, "type" : "VEC3", "max" : [54412.03125, 54416.03125, 54420.03125], "min" : [12.032515525817871, 16.032514572143555, 20.032514572143555]}, {"bufferView" : 11, "byteOffset" : 24, "componentType" : 5126, "count" : 1701, "type" : "VEC2", "max" : [54424.03125, 54428.03125], "min" : [24.032514572143555, 28.032514572143555]}, {"bufferView" : 0, "byteOffset" : 63320, "componentType" : 5123, "count" : 120, "type" : "SCALAR", "max" : [119], "min" : [0]}, {"bufferView" : 14, "byteOffset" : 0, "componentType" : 5126, "count" : 120, "type" : "VEC3", "max" : [3807.985107421875, 3811.985107421875, 3815.985107421875], "min" : [-0.01498288195580244, 3.9850170612335205, 7.9850172996521]}, {"bufferView" : 14, "byteOffset" : 12, "componentType" : 5126, "count" : 120, "type" : "VEC3", "max" : [3819.985107421875, 3823.985107421875, 3827.985107421875], "min" : [11.985016822814941, 15.985016822814941, 19.985017776489258]}, {"bufferView" : 14, "byteOffset" : 24, "componentType" : 5126, "count" : 120, "type" : "VEC2", "max" : [3831.985107421875, 3835.985107421875], "min" : [23.985017776489258, 27.985017776489258]}], "asset" : {"generator" : "Aspose.3D 20.8", "version" : "2.0"}, "buffers" : [{"uri" : "buffer.bin", "byteLength" : 7403968}], "bufferViews" : [{"buffer" : 0, "byteOffset" : 0, "byteLength" : 63560, "target" : 34963}, {"buffer" : 0, "byteOffset" : 63564, "byteLength" : 22800, "byteStride" : 40, "target" : 34962}, {"buffer" : 0, "byteOffset" : 86368, "byteLength" : 268653}, {"buffer" : 0, "byteOffset" : 355024, "byteLength" : 22800, "byteStride" : 40, "target" : 34962}, {"buffer" : 0, "byteOffset" : 377828, "byteLength" : 268653}, {"buffer" : 0, "byteOffset" : 646484, "byteLength" : 198144, "byteStride" : 32, "target" : 34962}, {"buffer" : 0, "byteOffset" : 844632, "byteLength" : 346601}, {"buffer" : 0, "byteOffset" : 1191236, "byteLength" : 331008, "byteStride" : 32, "target" : 34962}, {"buffer" : 0, "byteOffset" : 1522248, "byteLength" : 2388979}, {"buffer" : 0, "byteOffset" : 3911228, "byteLength" : 491280, "byteStride" : 40, "target" : 34962}, {"buffer" : 0, "byteOffset" : 4402512, "byteLength" : 2388979}, {"buffer" : 0, "byteOffset" : 6791492, "byteLength" : 54432, "byteStride" : 32, "target" : 34962}, {"buffer" : 0, "byteOffset" : 6845928, "byteLength" : 495090}, {"buffer" : 0, "byteOffset" : 7341020, "byteLength" : 59103}, {"buffer" : 0, "byteOffset" : 7400124, "byteLength" : 3840, "byteStride" : 32, "target" : 34962}], "images" : [{"mimeType" : "image/png", "bufferView" : 2}, {"mimeType" : "image/png", "bufferView" : 4}, {"mimeType" : "image/png", "bufferView" : 6}, {"mimeType" : "image/png", "bufferView" : 8}, {"mimeType" : "image/png", "bufferView" : 10}, {"mimeType" : "image/png", "bufferView" : 12}, {"mimeType" : "image/png", "bufferView" : 13}], "materials" : [{"pbrMetallicRoughness" : {"baseColorFactor" : [1, 1, 1, 1], "baseColorTexture" : {"index" : 0, "texCoord" : 0}, "metallicFactor" : 0, "roughnessFactor" : 1}, "emissiveFactor" : [0, 0, 0], "alphaMode" : "OPAQUE", "doubleSided" : true}, {"pbrMetallicRoughness" : {"baseColorFactor" : [1, 1, 1, 1], "baseColorTexture" : {"index" : 1, "texCoord" : 0}, "metallicFactor" : 0, "roughnessFactor" : 1}, "emissiveFactor" : [0, 0, 0], "alphaMode" : "OPAQUE", "doubleSided" : true}, {"pbrMetallicRoughness" : {"baseColorFactor" : [0.05098039656877518, 0.01568627543747425, 0.007843137718737125, 1], "metallicFactor" : 0.062745101749897, "roughnessFactor" : 0.6392157077789307}, "normalTexture" : {"index" : 2, "texCoord" : 0, "scale" : 1}, "emissiveFactor" : [0, 0, 0], "alphaMode" : "OPAQUE", "doubleSided" : true}, {"pbrMetallicRoughness" : {"baseColorFactor" : [1, 1, 1, 1], "baseColorTexture" : {"index" : 3, "texCoord" : 0}, "metallicFactor" : 0, "roughnessFactor" : 0.7019608020782471}, "emissiveFactor" : [0, 0, 0], "alphaMode" : "OPAQUE", "doubleSided" : true}, {"pbrMetallicRoughness" : {"baseColorFactor" : [1, 1, 1, 1], "baseColorTexture" : {"index" : 4, "texCoord" : 0}, "metallicFactor" : 0, "roughnessFactor" : 0.7019608020782471}, "emissiveFactor" : [0, 0, 0], "alphaMode" : "OPAQUE", "doubleSided" : true}, {"pbrMetallicRoughness" : {"baseColorFactor" : [1, 1, 1, 1], "baseColorTexture" : {"index" : 6, "texCoord" : 0}, "metallicFactor" : 0, "roughnessFactor" : 1}, "normalTexture" : {"index" : 5, "texCoord" : 0, "scale" : 1}, "emissiveFactor" : [0, 0, 0], "alphaMode" : "OPAQUE", "doubleSided" : true}, {"pbrMetallicRoughness" : {"baseColorFactor" : [0.8000000715255737, 0.8000000715255737, 0.8000000715255737, 1], "metallicFactor" : 0, "roughnessFactor" : 0.501960813999176}, "emissiveFactor" : [0, 0, 0], "alphaMode" : "OPAQUE", "doubleSided" : true}], "meshes" : [{"primitives" : [{"attributes" : {"POSITION" : 1, "NORMAL" : 2, "TEXCOORD_0" : 3, "TEXCOORD_1" : 4}, "indices" : 0, "material" : 0, "mode" : 4}]}, {"primitives" : [{"attributes" : {"POSITION" : 6, "NORMAL" : 7, "TEXCOORD_0" : 8, "TEXCOORD_1" : 9}, "indices" : 5, "material" : 1, "mode" : 4}]}, {"primitives" : [{"attributes" : {"POSITION" : 11, "NORMAL" : 12, "TEXCOORD_0" : 13}, "indices" : 10, "material" : 2, "mode" : 4}]}, {"primitives" : [{"attributes" : {"POSITION" : 15, "NORMAL" : 16, "TEXCOORD_0" : 17}, "indices" : 14, "material" : 3, "mode" : 4}]}, {"primitives" : [{"attributes" : {"POSITION" : 19, "NORMAL" : 20, "TEXCOORD_0" : 21, "TEXCOORD_1" : 22}, "indices" : 18, "material" : 4, "mode" : 4}]}, {"primitives" : [{"attributes" : {"POSITION" : 24, "NORMAL" : 25, "TEXCOORD_0" : 26}, "indices" : 23, "material" : 5, "mode" : 4}]}, {"primitives" : [{"attributes" : {"POSITION" : 28, "NORMAL" : 29, "TEXCOORD_0" : 30}, "indices" : 27, "material" : 6, "mode" : 4}]}], "nodes" : [{"mesh" : 0, "name" : "EyeLeft"}, {"mesh" : 1, "name" : "EyeRight"}, {"mesh" : 2, "name" : "Wolf3D_Hair"}, {"mesh" : 3, "name" : "Wolf3D_Hands"}, {"mesh" : 4, "name" : "Wolf3D_Head"}, {"mesh" : 5, "name" : "Wolf3D_Shirt"}, {"mesh" : 6, "name" : "Wolf3D_Teeth"}, {"children" : [0, 1, 2, 3, 4, 5, 6], "name" : "AvatarRoot"}], "samplers" : [{"magFilter" : 9729, "minFilter" : 9985, "wrapS" : 10497, "wrapT" : 10497}, {"magFilter" : 9729, "minFilter" : 9985, "wrapS" : 10497, "wrapT" : 10497}, {"magFilter" : 9729, "minFilter" : 9985, "wrapS" : 10497, "wrapT" : 10497}, {"magFilter" : 9729, "minFilter" : 9985, "wrapS" : 10497, "wrapT" : 10497}, {"magFilter" : 9729, "minFilter" : 9985, "wrapS" : 10497, "wrapT" : 10497}, {"magFilter" : 9729, "minFilter" : 9985, "wrapS" : 10497, "wrapT" : 10497}, {"magFilter" : 9729, "minFilter" : 9985, "wrapS" : 10497, "wrapT" : 10497}], "scene" : 0, "scenes" : [{"nodes" : [7]}], "textures" : [{"sampler" : 0, "source" : 0}, {"sampler" : 1, "source" : 1}, {"sampler" : 2, "source" : 2}, {"sampler" : 3, "source" : 3}, {"sampler" : 4, "source" : 4}, {"sampler" : 5, "source" : 5}, {"sampler" : 6, "source" : 6}]}